<svg width="45" height="45" viewBox="0 0 45 45" fill="none" xmlns="http://www.w3.org/2000/svg">
<rect width="45" height="45" rx="22.5" fill="#1265D1"/>
<path d="M20.7294 27.4162C20.5825 27.2712 20.5 27.0745 20.5 26.8695C20.5 26.6644 20.5825 26.4678 20.7294 26.3228L24.6085 22.4951L20.7294 18.6673C20.5867 18.5215 20.5077 18.3262 20.5095 18.1234C20.5113 17.9207 20.5937 17.7267 20.739 17.5834C20.8843 17.44 21.0808 17.3587 21.2863 17.3569C21.4918 17.3551 21.6897 17.4331 21.8375 17.5739L26.2706 21.9483C26.4175 22.0934 26.5 22.29 26.5 22.4951C26.5 22.7001 26.4175 22.8967 26.2706 23.0418L21.8375 27.4162C21.6906 27.5611 21.4913 27.6426 21.2835 27.6426C21.0757 27.6426 20.8764 27.5611 20.7294 27.4162Z" fill="#FAFAFA"/>
</svg>
