<svg width="45" height="45" viewBox="0 0 45 45" fill="none" xmlns="http://www.w3.org/2000/svg">
<rect width="45" height="45" rx="22.5" transform="matrix(-1 0 0 1 45 0)" fill="#1265D1"/>
<path d="M24.2706 27.4162C24.4175 27.2712 24.5 27.0745 24.5 26.8695C24.5 26.6644 24.4175 26.4678 24.2706 26.3228L20.3915 22.4951L24.2706 18.6673C24.4133 18.5215 24.4923 18.3262 24.4905 18.1234C24.4887 17.9207 24.4063 17.7267 24.261 17.5834C24.1157 17.44 23.9192 17.3587 23.7137 17.3569C23.5082 17.3551 23.3103 17.4331 23.1625 17.5739L18.7294 21.9483C18.5825 22.0934 18.5 22.29 18.5 22.4951C18.5 22.7001 18.5825 22.8967 18.7294 23.0418L23.1625 27.4162C23.3094 27.5611 23.5087 27.6426 23.7165 27.6426C23.9243 27.6426 24.1236 27.5611 24.2706 27.4162Z" fill="#FAFAFA"/>
</svg>
