<svg width="24" height="24" viewBox="0 0 24 24" fill="none" xmlns="http://www.w3.org/2000/svg">
<path d="M7.08358 9.22944C7.22859 9.08253 7.42524 9 7.63029 9C7.83533 9 8.03198 9.08253 8.17699 9.22944L12.0047 13.1085L15.8324 9.22944C15.9783 9.08669 16.1736 9.00771 16.3763 9.00949C16.5791 9.01128 16.773 9.09369 16.9164 9.23899C17.0598 9.38428 17.1411 9.58083 17.1429 9.78629C17.1446 9.99176 17.0667 10.1897 16.9258 10.3375L12.5514 14.7706C12.4064 14.9175 12.2097 15 12.0047 15C11.7997 15 11.603 14.9175 11.458 14.7706L7.08358 10.3375C6.93862 10.1906 6.85718 9.99127 6.85718 9.78347C6.85718 9.57568 6.93862 9.37639 7.08358 9.22944Z" fill="#0E141D"/>
</svg>
