<svg width="26" height="26" viewBox="0 0 26 26" fill="none" xmlns="http://www.w3.org/2000/svg">
<g clip-path="url(#clip0_312_491)">
<rect x="1" y="1" width="24" height="24" rx="12" fill="white"/>
<path fill-rule="evenodd" clip-rule="evenodd" d="M1 1H25V25H1V1Z" fill="white"/>
<path fill-rule="evenodd" clip-rule="evenodd" d="M1 9H25V25H1V9Z" fill="#0039A6"/>
<path fill-rule="evenodd" clip-rule="evenodd" d="M1 17H25V25H1V17Z" fill="#D52B1E"/>
<path fill-rule="evenodd" clip-rule="evenodd" d="M1 1H46.6626V2.85H1V1ZM1 4.695H46.6626V6.545H1V4.695ZM1 8.385H46.6626V10.235H1V8.385ZM1 12.075H46.6626V13.925H1V12.075ZM1 15.775H46.6626V17.615H1V15.775ZM1 19.46H46.6626V21.31H1V19.46ZM1 23.15H46.6626V25H1V23.15Z" fill="#BD3D44"/>
<path fill-rule="evenodd" clip-rule="evenodd" d="M1 2.84998H46.6626V4.69498H1V2.84998ZM1 6.53998H46.6626V8.38498H1V6.53998ZM1 10.23H46.6626V12.08H1V10.23ZM1 13.925H46.6626V15.775H1V13.925ZM1 17.615H46.6626V19.465H1V17.615ZM1 21.305H46.6626V23.155H1V21.305Z" fill="white"/>
<path fill-rule="evenodd" clip-rule="evenodd" d="M1 1H19.2651V13.925H1V1Z" fill="#192F5D"/>
<path fill-rule="evenodd" clip-rule="evenodd" d="M2.52201 1.54993L2.69224 2.06493H3.22297L2.79238 2.37993L2.95761 2.89493L2.52201 2.57493L2.09142 2.88993L2.25164 2.37993L1.81604 2.06493H2.36179L2.52201 1.54993ZM5.56618 1.54993L5.73141 2.06493H6.27215L5.83656 2.37993L5.99677 2.89493L5.56618 2.57493L5.13059 2.88993L5.29581 2.37993L4.86522 2.06493H5.39595L5.56618 1.54993ZM8.61036 1.54993L8.77559 2.06493H9.31132L8.88073 2.37993L9.04596 2.89493L8.61036 2.57493L8.17476 2.88993L8.33999 2.37993L7.90439 2.06493H8.44513L8.61036 1.54993ZM11.6545 1.54993L11.8198 2.06493H12.3605L11.9249 2.37993L12.0901 2.89493L11.6545 2.57493L11.2189 2.88993L11.3892 2.37993L10.9486 2.06493H11.4843L11.6545 1.54993ZM14.6987 1.54993L14.8639 2.06493H15.3997L14.9691 2.37993L15.1343 2.89493L14.6987 2.57493L14.2631 2.88993L14.4283 2.37993L13.9978 2.06493H14.5335L14.6987 1.54993ZM17.7429 1.54993L17.9081 2.06493H18.4489L18.0083 2.37993L18.1785 2.89493L17.7429 2.57493L17.3073 2.88993L17.4775 2.37993L17.0369 2.06493H17.5777L17.7429 1.54993ZM4.0441 2.84993L4.20932 3.35993H4.75507L4.31947 3.66993L4.47969 4.18493L4.05411 3.86993L3.61851 4.18493L3.77373 3.66993L3.35315 3.35993H3.88888L4.0441 2.84993ZM7.08827 2.84993L7.25851 3.35993H7.79424L7.35364 3.66993L7.52387 4.18493L7.08827 3.86993L6.65267 4.18493L6.8179 3.66993L6.3823 3.35993H6.92305L7.08827 2.84993ZM10.1324 2.84993L10.2977 3.35993H10.8384L10.4028 3.66993L10.568 4.18493L10.1324 3.86993L9.69685 4.18493L9.86208 3.66993L9.43149 3.35993H9.96221L10.1324 2.84993ZM13.1766 2.84993L13.3469 3.35993H13.8826L13.442 3.66993L13.6122 4.18493L13.1766 3.86993L12.746 4.18493L12.9063 3.66993L12.4707 3.35993H13.0164L13.1766 2.84993ZM16.2208 2.84993L16.386 3.35993H16.9268L16.4912 3.66993L16.6564 4.18493L16.2208 3.86993L15.7852 4.18493L15.9504 3.66993L15.5198 3.35993H16.0556L16.2208 2.84993ZM2.52201 4.12993L2.69224 4.64993H3.22297L2.79238 4.96493L2.95761 5.47493L2.52201 5.15993L2.09142 5.47493L2.25164 4.96493L1.81604 4.64993H2.36179L2.52201 4.12993ZM5.56618 4.12993L5.73141 4.64993H6.27215L5.83656 4.96493L5.99677 5.47493L5.56618 5.15993L5.13059 5.47493L5.29581 4.95993L4.86522 4.64493H5.39595L5.56618 4.12993ZM8.61036 4.12993L8.77559 4.64493H9.31132L8.88073 4.95993L9.04596 5.46993L8.61036 5.15493L8.17476 5.46993L8.33999 4.95493L7.90439 4.63993H8.44513L8.61036 4.12993ZM11.6545 4.12993L11.8198 4.64493H12.3605L11.9249 4.95993L12.0901 5.46993L11.6545 5.15493L11.2189 5.46993L11.3892 4.95493L10.9486 4.63993H11.4843L11.6545 4.12993ZM14.6987 4.12993L14.8639 4.64493H15.3997L14.9691 4.95993L15.1343 5.46993L14.6987 5.15493L14.2631 5.46993L14.4283 4.95493L13.9978 4.63993H14.5335L14.6987 4.12993ZM17.7429 4.12993L17.9081 4.64493H18.4489L18.0083 4.95993L18.1785 5.46993L17.7429 5.15493L17.3073 5.46993L17.4775 4.95493L17.0369 4.63993H17.5777L17.7429 4.12993ZM4.0441 5.42993L4.20932 5.93993H4.75507L4.31947 6.25493L4.4847 6.76993L4.0491 6.44993L3.61351 6.76493L3.77873 6.25493L3.34814 5.93993H3.88388L4.0441 5.42993ZM7.08827 5.42993L7.25851 5.93993H7.79424L7.35364 6.25493L7.52387 6.76993L7.08827 6.44993L6.65267 6.76493L6.8179 6.25493L6.3823 5.93993H6.92305L7.08827 5.42993ZM10.1324 5.42993L10.2977 5.93993H10.8384L10.4028 6.25493L10.568 6.76993L10.1324 6.44993L9.69685 6.76493L9.86208 6.25493L9.43149 5.93993H9.96221L10.1324 5.42993ZM13.1766 5.42993L13.3469 5.93993H13.8826L13.447 6.25493L13.6122 6.76993L13.1766 6.44993L12.746 6.76493L12.9063 6.25493L12.4707 5.93993H13.0164L13.1766 5.42993ZM16.2208 5.42993L16.386 5.93993H16.9268L16.4912 6.25493L16.6564 6.76993L16.2208 6.44993L15.7852 6.76493L15.9504 6.25493L15.5198 5.93993H16.0556L16.2208 5.42993ZM2.52201 6.72493L2.69224 7.23493H3.22297L2.79238 7.54993L2.95761 8.06493L2.52201 7.74493L2.09142 8.05993L2.25164 7.54993L1.81604 7.23493H2.36179L2.52201 6.72493ZM5.56618 6.72493L5.73141 7.23493H6.27215L5.83656 7.54993L5.99677 8.05993L5.56618 7.74493L5.13059 8.05993L5.29581 7.54993L4.86522 7.23493H5.39595L5.56618 6.72493ZM8.61036 6.72493L8.77559 7.23493H9.31132L8.88073 7.54993L9.04596 8.06493L8.61036 7.74493L8.17476 8.05993L8.33999 7.54993L7.90439 7.23493H8.44513L8.61036 6.72493ZM11.6545 6.72493L11.8198 7.23493H12.3605L11.9249 7.54993L12.0901 8.06493L11.6545 7.74493L11.2189 8.05993L11.3892 7.54993L10.9486 7.23493H11.4843L11.6545 6.72493ZM14.6987 6.72493L14.8639 7.23493H15.3997L14.9691 7.54993L15.1343 8.06493L14.6987 7.74493L14.2631 8.05993L14.4283 7.54993L13.9978 7.23493H14.5335L14.6987 6.72493ZM17.7429 6.72493L17.9081 7.23493H18.4489L18.0083 7.54993L18.1785 8.06493L17.7429 7.74493L17.3073 8.05993L17.4725 7.54993L17.0319 7.23493H17.5727L17.7429 6.72493ZM4.0441 8.01493L4.20932 8.52993H4.75507L4.31947 8.83993L4.4847 9.35493L4.0491 9.03493L3.61351 9.35493L3.77873 8.83993L3.34814 8.52493H3.88388L4.0441 8.01493ZM7.08827 8.01493L7.25851 8.52993H7.79424L7.35364 8.83993L7.52387 9.35493L7.08827 9.03493L6.65267 9.35493L6.8179 8.83993L6.3823 8.52493H6.92305L7.08827 8.01493ZM10.1324 8.01493L10.2977 8.52993H10.8384L10.4028 8.83993L10.568 9.35493L10.1324 9.03493L9.69685 9.35493L9.86208 8.83993L9.43149 8.52493H9.96221L10.1324 8.01493ZM13.1766 8.01493L13.3469 8.52993H13.8826L13.447 8.83993L13.6122 9.35493L13.1766 9.03493L12.746 9.35493L12.9063 8.83993L12.4707 8.52493H13.0164L13.1766 8.01493ZM16.2208 8.01493L16.386 8.52993H16.9268L16.4912 8.83993L16.6564 9.35493L16.2208 9.03493L15.7852 9.35493L15.9504 8.83993L15.5198 8.52493H16.0556L16.2208 8.01493ZM2.52201 9.30493L2.69224 9.81993H3.22297L2.79238 10.1349L2.95761 10.6399L2.52201 10.3299L2.09142 10.6399L2.25164 10.1299L1.81604 9.81493H2.36179L2.52201 9.30493ZM5.56618 9.30493L5.73141 9.81993H6.27215L5.83656 10.1349L6.00178 10.6399L5.56618 10.3299L5.13059 10.6399L5.30082 10.1299L4.86522 9.81493H5.39595L5.56618 9.30493ZM8.61036 9.30493L8.77559 9.81993H9.31132L8.88073 10.1349L9.04596 10.6399L8.61036 10.3299L8.17476 10.6399L8.33999 10.1299L7.90439 9.81493H8.44513L8.61036 9.30493ZM11.6545 9.30493L11.8198 9.81993H12.3605L11.9249 10.1349L12.0901 10.6399L11.6545 10.3299L11.2189 10.6399L11.3892 10.1299L10.9486 9.81493H11.4843L11.6545 9.30493ZM14.6987 9.30493L14.8639 9.81993H15.3997L14.9691 10.1349L15.1343 10.6399L14.6987 10.3299L14.2631 10.6399L14.4283 10.1299L13.9978 9.81493H14.5335L14.6987 9.30493ZM17.7429 9.30493L17.9081 9.81993H18.4489L18.0083 10.1349L18.1785 10.6399L17.7429 10.3299L17.3073 10.6399L17.4775 10.1299L17.0369 9.81493H17.5777L17.7429 9.30493ZM4.0441 10.5999L4.20932 11.1099H4.75507L4.31947 11.4249L4.4847 11.9399L4.0491 11.6199L3.61351 11.9349L3.77873 11.4249L3.34814 11.1099H3.88388L4.0441 10.5999ZM7.08827 10.5999L7.25851 11.1099H7.79424L7.35364 11.4249L7.52387 11.9399L7.08827 11.6199L6.65267 11.9349L6.8179 11.4249L6.3823 11.1099H6.92305L7.08827 10.5999ZM10.1324 10.5999L10.2977 11.1099H10.8384L10.4028 11.4249L10.568 11.9399L10.1324 11.6199L9.69685 11.9349L9.86208 11.4249L9.43149 11.1099H9.96221L10.1324 10.5999ZM13.1766 10.5999L13.3469 11.1099H13.8826L13.447 11.4249L13.6122 11.9399L13.1766 11.6199L12.746 11.9349L12.9063 11.4249L12.4707 11.1099H13.0164L13.1766 10.5999ZM16.2208 10.5999L16.386 11.1099H16.9268L16.4912 11.4249L16.6564 11.9399L16.2208 11.6199L15.7852 11.9349L15.9504 11.4249L15.5198 11.1099H16.0556L16.2208 10.5999ZM2.52201 11.8949L2.69224 12.4049H3.22297L2.79238 12.7199L2.95761 13.2299L2.52201 12.9149L2.09142 13.2299L2.25164 12.7149L1.81604 12.3999H2.36179L2.52201 11.8949ZM5.56618 11.8949L5.73141 12.4049H6.27215L5.83656 12.7199L6.00178 13.2299L5.56618 12.9149L5.13059 13.2299L5.30082 12.7149L4.86522 12.3999H5.39595L5.56618 11.8949ZM8.61036 11.8949L8.77559 12.4049H9.31132L8.89074 12.7199L9.05597 13.2299L8.62037 12.9149L8.18478 13.2299L8.35 12.7149L7.91441 12.3999H8.45515L8.61036 11.8949ZM11.6545 11.8949L11.8198 12.4049H12.3605L11.9249 12.7199L12.0901 13.2299L11.6545 12.9149L11.2189 13.2299L11.3892 12.7149L10.9486 12.3999H11.4843L11.6545 11.8949ZM14.6987 11.8949L14.8639 12.4049H15.3997L14.9691 12.7199L15.1343 13.2299L14.6987 12.9149L14.2631 13.2299L14.4283 12.7149L13.9978 12.3999H14.5335L14.6987 11.8949ZM17.7429 11.8949L17.9081 12.4049H18.4489L18.0083 12.7199L18.1785 13.2299L17.7429 12.9149L17.3073 13.2299L17.4775 12.7149L17.0369 12.3999H17.5777L17.7429 11.8949Z" fill="white"/>
</g>
<rect x="0.5" y="0.5" width="25" height="25" rx="12.5" stroke="#D2D8E4"/>
<defs>
<clipPath id="clip0_312_491">
<rect x="1" y="1" width="24" height="24" rx="12" fill="white"/>
</clipPath>
</defs>
</svg>
